HIERARCHY
ROOT root
{
	OFFSET	0	13.1	24.9
	CHANNELS 6  Xposition Yposition Zposition Xrotation Yrotation Zrotation
	JOINT spine_1
	{
		OFFSET	0	9.99999	0
		CHANNELS 3  Xrotation Yrotation Zrotation
		JOINT spine_2
		{
			OFFSET	0	112	-10
			CHANNELS 3  Xrotation Yrotation Zrotation
			JOINT spine_3
			{
				OFFSET	0	206.5	19.3
				CHANNELS 3  Xrotation Yrotation Zrotation
				JOINT spine_4
				{
					OFFSET	0	110.4	14.6
					CHANNELS 3  Xrotation Yrotation Zrotation
					JOINT neck_1
					{
						OFFSET	0	71.8	-50.3
						CHANNELS 3  Xrotation Yrotation Zrotation
						JOINT neck_2
						{
							OFFSET	0	86.2	-25.8
							CHANNELS 3  Xrotation Yrotation Zrotation
							JOINT head_ee
							{
								OFFSET	0	179.8	-8.7
								CHANNELS 3  Xrotation Yrotation Zrotation
								End Site
								{
									OFFSET	1	0	0
								}
							}
						}
					}
					JOINT left_clavicle
					{
						OFFSET	-43.2	22.4	-70.8
						CHANNELS 3  Xrotation Yrotation Zrotation
						JOINT left_shoulder
						{
							OFFSET	-93.9	-5.79999	48.7
							CHANNELS 3  Xrotation Yrotation Zrotation
							JOINT left_elbow
							{
								OFFSET	-291.4	-30.8	15.2
								CHANNELS 3  Xrotation Yrotation Zrotation
								JOINT left_lowarm_twist
								{
									OFFSET	-110.7	-3.89999	13.6
									CHANNELS 3  Xrotation Yrotation Zrotation
									JOINT left_hand
									{
										OFFSET	-110.7	-3.89999	13.6
										CHANNELS 3  Xrotation Yrotation Zrotation
										JOINT left_ee
										{
											OFFSET	-80.8	-5.10001	12.1
											CHANNELS 3  Xrotation Yrotation Zrotation
											End Site
											{
												OFFSET	1	0	0
											}
										}
									}
								}
							}
						}
					}
					JOINT right_clavicle
					{
						OFFSET	43.2	22.4	-70.8
						CHANNELS 3  Xrotation Yrotation Zrotation
						JOINT right_shoulder
						{
							OFFSET	93.9	-5.79999	48.7
							CHANNELS 3  Xrotation Yrotation Zrotation
							JOINT right_elbow
							{
								OFFSET	291.4	-30.8	15.2
								CHANNELS 3  Xrotation Yrotation Zrotation
								JOINT right_lowarm_twist
								{
									OFFSET	110.7	-3.89999	13.6
									CHANNELS 3  Xrotation Yrotation Zrotation
									JOINT right_hand
									{
										OFFSET	110.7	-3.89999	13.6
										CHANNELS 3  Xrotation Yrotation Zrotation
										JOINT right_ee
										{
											OFFSET	80.8	-5.10001	12.1
											CHANNELS 3  Xrotation Yrotation Zrotation
											End Site
											{
												OFFSET	1	0	0
											}
										}
									}
								}
							}
						}
					}
				}
			}
		}
	}
	JOINT left_hip
	{
		OFFSET	-82.8	-127.5	0.300001
		CHANNELS 3  Xrotation Yrotation Zrotation
		JOINT left_knee
		{
			OFFSET	-28.2	-396.7	2.2
			CHANNELS 3  Xrotation Yrotation Zrotation
			JOINT left_ankle
			{
				OFFSET	-11.7	-411.3	35.4
				CHANNELS 3  Xrotation Yrotation Zrotation
				JOINT left_toes
				{
					OFFSET	0	-60	-88.6
					CHANNELS 3  Xrotation Yrotation Zrotation
					JOINT left_foot_ee
					{
						OFFSET	-22.5	-16.5	-42.2
						CHANNELS 3  Xrotation Yrotation Zrotation
						End Site
						{
							OFFSET	1	0	0
						}
					}
				}
			}
		}
	}
	JOINT right_hip
	{
		OFFSET	82.8	-127.5	0.300001
		CHANNELS 3  Xrotation Yrotation Zrotation
		JOINT right_knee
		{
			OFFSET	28.2	-396.7	2.2
			CHANNELS 3  Xrotation Yrotation Zrotation
			JOINT right_ankle
			{
				OFFSET	11.7	-411.3	35.4
				CHANNELS 3  Xrotation Yrotation Zrotation
				JOINT right_toes
				{
					OFFSET	0	-60	-88.6
					CHANNELS 3  Xrotation Yrotation Zrotation
					JOINT right_foot_ee
					{
						OFFSET	22.5	-16.5	-42.2
						CHANNELS 3  Xrotation Yrotation Zrotation
						End Site
						{
							OFFSET	1	0	0
						}
					}
				}
			}
		}
	}
}
MOTION
Frames: 5
Frame Time: 0.02
391.555 721.904 -1204.45 -153.77116969 -9.81781855763 -172.685587979 11.4006 0.26559 -0.516011 11.4007 0.297886 -0.498065 11.3979 0.30426 -0.494197 11.3977 0.222393 -0.536046 -27.3704 4.96057 -1.27059 -27.6008 10.0185 1.54433 -0.0 0.0 -0.0 4.43803 4.11447 8.71904 -54.3057 -54.4959 52.9902 0.234572 -6.6282 0.0135832 -60.2588 -5.31495 5.10916 -3.22087 7.70087 -17.9982 -0.0 0.0 -0.0 9.15463 0.486939 -17.9375 -42.7312 50.0313 -53.1192 0.313716 8.83361 -0.0242317 -37.8733 2.72789 -3.90377 3.71803 25.79 -13.184 0.0 0.0 0.0 49.8024 38.3607 -17.4116 -15.8945 0.321933 2.41013 36.4766 -31.6465 -5.67546 0.0551743 -0.0 -0.0 -0.0 0.0 -0.0 44.498 55.115 -16.7525 -9.6221 -0.275008 -1.44935 37.9138 15.12 4.98074 39.8183 -0.0 -0.0 0.0 0.0 0.0 
393.652709769 723.154 -1207.86228878 -152.795902501 -10.2701868434 -173.37730752 11.4478 0.293871 -0.50911 11.4479 0.325671 -0.489379 11.445 0.331533 -0.485427 11.4447 0.250709 -0.531693 -26.8839 4.60101 0.462891 -27.0532 8.67301 2.91837 -0.0 0.0 -0.0 4.51189 4.10844 8.85693 -55.8346 -55.2263 53.9745 0.280161 -7.90143 0.0193487 -60.5348 -5.34933 5.11752 -2.51597 6.16387 -14.01 -0.0 0.0 -0.0 9.50021 3.04093 -18.7242 -41.0923 50.9547 -54.0853 0.216083 6.10988 -0.0115322 -35.0508 2.44085 -3.68303 3.64701 26.0847 -12.5558 0.0 0.0 0.0 47.6746 32.2671 -12.711 -16.0518 0.321757 2.43426 35.3974 -26.3455 -5.21731 -0.370882 0.0 0.0 -0.0 0.0 -0.0 41.2743 48.6461 -12.6303 -9.04087 -0.26534 -1.36069 37.8771 18.5566 5.09875 40.1301 -0.0 -0.0 0.0 0.0 0.0 
393.705869901 723.154 -1207.82903236 -152.867171688 -9.47218228477 -173.793020298 11.4478 0.293871 -0.50911 11.4479 0.325671 -0.489379 11.445 0.331533 -0.485427 11.4447 0.250709 -0.531693 -26.8839 4.60101 0.462891 -27.0532 8.67301 2.91837 -0.0 0.0 -0.0 4.51189 4.10844 8.85693 -55.8346 -55.2263 53.9745 0.280161 -7.90143 0.0193487 -60.5348 -5.34933 5.11752 -2.51597 6.16387 -14.01 -0.0 0.0 -0.0 9.50021 3.04093 -18.7242 -41.0923 50.9547 -54.0853 0.216083 6.10988 -0.0115322 -35.0508 2.44085 -3.68303 3.64701 26.0847 -12.5558 0.0 0.0 0.0 47.6746 32.2671 -12.711 -16.0518 0.321757 2.43426 35.3974 -26.3455 -5.21731 -0.370882 0.0 0.0 -0.0 0.0 -0.0 41.2743 48.6461 -12.6303 -9.04087 -0.26534 -1.36069 37.8771 18.5566 5.09875 40.1301 -0.0 -0.0 0.0 0.0 0.0 
393.798538284 723.154 -1207.76822799 -152.978468437 -8.0604655224 -174.523225039 11.4478 0.293871 -0.50911 11.4479 0.325671 -0.489379 11.445 0.331533 -0.485427 11.4447 0.250709 -0.531693 -26.8839 4.60101 0.462891 -27.0532 8.67301 2.91837 -0.0 0.0 -0.0 4.51189 4.10844 8.85693 -55.8346 -55.2263 53.9745 0.280161 -7.90143 0.0193487 -60.5348 -5.34933 5.11752 -2.51597 6.16387 -14.01 -0.0 0.0 -0.0 9.50021 3.04093 -18.7242 -41.0923 50.9547 -54.0853 0.216083 6.10988 -0.0115322 -35.0508 2.44085 -3.68303 3.64701 26.0847 -12.5558 0.0 0.0 0.0 47.6746 32.2671 -12.711 -16.0518 0.321757 2.43426 35.3974 -26.3455 -5.21731 -0.370882 0.0 0.0 -0.0 0.0 -0.0 41.2743 48.6461 -12.6303 -9.04087 -0.26534 -1.36069 37.8771 18.5566 5.09875 40.1301 -0.0 -0.0 0.0 0.0 0.0 
397.304777234 703.654 -1204.83002337 -150.116424098 -26.2469684104 -162.194433455 10.4258 0.115016 -1.05825 10.4264 0.182118 -1.04879 10.4217 0.213384 -1.04288 10.4202 0.0460128 -1.06349 -20.0468 5.29267 -0.165929 -20.2002 10.2872 2.07442 -0.0 0.0 -0.0 -0.0570797 15.8327 1.77026 -60.2446 -73.5593 46.7077 0.23276 -6.57747 0.013375 -63.3238 -5.69877 5.19257 -0.809744 3.98854 -3.66928 -0.0 0.0 -0.0 13.023 27.1639 -25.588 -71.4059 63.9071 -29.5424 0.360045 10.1129 -0.0318574 -46.63 3.68223 -4.49515 -4.17803 -12.2962 21.9063 0.0 0.0 0.0 48.0532 14.2892 -5.60744 -30.1969 0.0364755 4.5807 41.6177 19.9429 -5.17396 -20.9394 0.0 0.0 -0.0 0.0 -0.0 41.4072 60.5215 -16.2529 -3.26131 -0.120473 -0.485942 40.9414 -11.1691 4.96827 40.1489 -0.0 -0.0 0.0 0.0 0.0 
